<?xml version="1.0" encoding="UTF-8"?>
<svg width="184" height="148" viewBox="0 0 184 148" preserveAspectRatio="xMinYMin meet" xmlns="http://www.w3.org/2000/svg">
<rect x="14" y="52" width="156" height="74.5" rx="10" fill="rgba(0,0,0,0.08)" stroke="none"/>
<text x="22" y="76" fill="#111" font-size="10" font-family="sans-serif">V2</text>
<text x="22" y="88" fill="#111" font-size="10" font-family="sans-serif">A₁</text>
<text x="22" y="100" fill="#111" font-size="10" font-family="sans-serif">I2</text>
<path d="M 26 52 Q 14 52 14 62 V 116.5 Q 14 126.5 26 126.5" fill="none" stroke="#000" stroke-width="2" stroke-linecap="round" stroke-linejoin="round"/>
<path d="M 158 52 Q 170 52 170 62 V 116.5 Q 170 126.5 158 126.5" fill="none" stroke="#000" stroke-width="2" stroke-linecap="round" stroke-linejoin="round"/>
<path d="M 17 52 Q 8 52 8 62 V 116.5 Q 8 126.5 17 126.5" fill="none" stroke="#000" stroke-width="2" stroke-linecap="round" stroke-linejoin="round" stroke-dasharray="8 5"/>
<path d="M 167 52 Q 176 52 176 62 V 116.5 Q 176 126.5 167 126.5" fill="none" stroke="#000" stroke-width="2" stroke-linecap="round" stroke-linejoin="round" stroke-dasharray="8 5"/>
<path d="M 11 52 Q 2 52 2 62 V 116.5 Q 2 126.5 11 126.5" fill="none" stroke="#000" stroke-width="2" stroke-linecap="round" stroke-linejoin="round" stroke-dasharray="1 4"/>
<path d="M 173 52 Q 182 52 182 62 V 116.5 Q 182 126.5 173 126.5" fill="none" stroke="#000" stroke-width="2" stroke-linecap="round" stroke-linejoin="round" stroke-dasharray="1 4"/>
<g transform="translate(78,18) scale(0.0345679012345679)" style="color:#111"><defs><clipPath id="ef8b6e6477"><path d="M 0 0 L 810 0 L 810 810 L 0 810 Z M 0 0 " clip-rule="nonzero"/></clipPath><clipPath id="8f38f95bf3"><rect x="0" width="810" y="0" height="810"/></clipPath></defs><g transform="matrix(1, 0, 0, 1, 0, 0.000000000000039746)"><g clip-path="url(#8f38f95bf3)"><g clip-path="url(#ef8b6e6477)"><rect x="-178.2" width="1166.4" fill="#737373" height="1166.39999" y="-178.199998" fill-opacity="1"/></g></g></g></g>
<g transform="translate(40,58) scale(0.0345679012345679)" style="color:#bebada"><defs><clipPath id="b41208b5f7"><path d="M 253.125 0 L 556.875 0 L 556.875 253.125 L 253.125 253.125 Z M 0 253.125 L 810 253.125 L 810 556.875 L 0 556.875 Z M 253.125 556.875 L 556.875 556.875 L 556.875 810 L 253.125 810 Z M 253.125 556.875 " clip-rule="nonzero"/></clipPath><clipPath id="825fc48b99"><path d="M 253.125 0 L 556.875 0 L 556.875 253.125 L 253.125 253.125 Z M 0 253.125 L 810 253.125 L 810 556.875 L 0 556.875 Z M 253.125 556.875 L 556.875 556.875 L 556.875 810 L 253.125 810 Z M 253.125 556.875 " clip-rule="nonzero"/></clipPath><clipPath id="612c954716"><rect x="0" width="810" y="0" height="810"/></clipPath></defs><g clip-path="url(#b41208b5f7)"><g transform="matrix(1, 0, 0, 1, 0, 0.000000000000039746)"><g clip-path="url(#612c954716)"><g clip-path="url(#825fc48b99)"><rect x="-178.2" width="1166.4" fill="#bebada" height="1166.39999" y="-178.199998" fill-opacity="1"/></g></g></g><path fill="#000000" d="M 475.875 40.5 L 435.375 40.5 L 435.375 -40.5 L 475.875 -40.5 Z M 394.875 40.5 L 354.375 40.5 L 354.375 -40.5 L 394.875 -40.5 Z M 313.875 40.5 L 273.375 40.5 L 273.375 -40.5 L 313.875 -40.5 Z M 293.625 20.25 L 293.625 60.75 L 212.625 60.75 L 212.625 20.25 Z M 293.625 101.25 L 293.625 141.75 L 212.625 141.75 L 212.625 101.25 Z M 293.625 182.25 L 293.625 222.75 L 212.625 222.75 L 212.625 182.25 Z M 243 293.625 L 202.5 293.625 L 202.5 212.625 L 243 212.625 Z M 162 293.625 L 121.5 293.625 L 121.5 212.625 L 162 212.625 Z M 81 293.625 L 40.5 293.625 L 40.5 212.625 L 81 212.625 Z M 40.5 253.125 L 40.5 293.625 L -40.5 293.625 L -40.5 253.125 Z M 40.5 334.125 L 40.5 374.625 L -40.5 374.625 L -40.5 334.125 Z M 40.5 415.125 L 40.5 455.625 L -40.5 455.625 L -40.5 415.125 Z M 40.5 496.125 L 40.5 536.625 L -40.5 536.625 L -40.5 496.125 Z M 20.25 516.375 L 60.75 516.375 L 60.75 597.375 L 20.25 597.375 Z M 101.25 516.375 L 141.75 516.375 L 141.75 597.375 L 101.25 597.375 Z M 182.25 516.375 L 222.75 516.375 L 222.75 597.375 L 182.25 597.375 Z M 293.625 567 L 293.625 607.5 L 212.625 607.5 L 212.625 567 Z M 293.625 648 L 293.625 688.5 L 212.625 688.5 L 212.625 648 Z M 293.625 729 L 293.625 769.5 L 212.625 769.5 L 212.625 729 Z M 253.125 769.5 L 293.625 769.5 L 293.625 850.5 L 253.125 850.5 Z M 334.125 769.5 L 374.625 769.5 L 374.625 850.5 L 334.125 850.5 Z M 415.125 769.5 L 455.625 769.5 L 455.625 850.5 L 415.125 850.5 Z M 496.125 769.5 L 536.625 769.5 L 536.625 850.5 L 496.125 850.5 Z M 516.375 789.75 L 516.375 749.25 L 597.375 749.25 L 597.375 789.75 Z M 516.375 708.75 L 516.375 668.25 L 597.375 668.25 L 597.375 708.75 Z M 516.375 627.75 L 516.375 587.25 L 597.375 587.25 L 597.375 627.75 Z M 567 516.375 L 607.5 516.375 L 607.5 597.375 L 567 597.375 Z M 648 516.375 L 688.5 516.375 L 688.5 597.375 L 648 597.375 Z M 729 516.375 L 769.5 516.375 L 769.5 597.375 L 729 597.375 Z M 769.5 556.875 L 769.5 516.375 L 850.5 516.375 L 850.5 556.875 Z M 769.5 475.875 L 769.5 435.375 L 850.5 435.375 L 850.5 475.875 Z M 769.5 394.875 L 769.5 354.375 L 850.5 354.375 L 850.5 394.875 Z M 769.5 313.875 L 769.5 273.375 L 850.5 273.375 L 850.5 313.875 Z M 789.75 293.625 L 749.25 293.625 L 749.25 212.625 L 789.75 212.625 Z M 708.75 293.625 L 668.25 293.625 L 668.25 212.625 L 708.75 212.625 Z M 627.75 293.625 L 587.25 293.625 L 587.25 212.625 L 627.75 212.625 Z M 516.375 243 L 516.375 202.5 L 597.375 202.5 L 597.375 243 Z M 516.375 162 L 516.375 121.5 L 597.375 121.5 L 597.375 162 Z M 516.375 81 L 516.375 40.5 L 597.375 40.5 L 597.375 81 Z M 556.875 40.5 L 516.375 40.5 L 516.375 -40.5 L 556.875 -40.5 Z M 556.875 40.5 " fill-opacity="1" fill-rule="nonzero"/></g></g>
<circle cx="54" cy="72" r="16" fill="none" stroke="#000" stroke-width="2"/>
<g transform="translate(78,58) scale(0.0345679012345679)" style="color:#bebada"><defs><clipPath id="c9a64e8f78"><path d="M 0 0 L 810 0 L 810 810 L 0 810 Z M 0 0 " clip-rule="nonzero"/></clipPath><clipPath id="934f91efa8"><path d="M 405 0 C 181.324219 0 0 181.324219 0 405 C 0 628.675781 181.324219 810 405 810 C 628.675781 810 810 628.675781 810 405 C 810 181.324219 628.675781 0 405 0 Z M 405 0 " clip-rule="nonzero"/></clipPath><clipPath id="135a31cefe"><path d="M 0 0 L 810 0 L 810 810 L 0 810 Z M 0 0 " clip-rule="nonzero"/></clipPath><clipPath id="6e1eda2f59"><path d="M 405 0 C 181.324219 0 0 181.324219 0 405 C 0 628.675781 181.324219 810 405 810 C 628.675781 810 810 628.675781 810 405 C 810 181.324219 628.675781 0 405 0 Z M 405 0 " clip-rule="nonzero"/></clipPath><clipPath id="152fde3fed"><rect x="0" width="810" y="0" height="810"/></clipPath><clipPath id="2519b130b5"><path d="M 132.5625 135.953125 L 676.980469 135.953125 L 676.980469 680.367188 L 132.5625 680.367188 Z M 132.5625 135.953125 " clip-rule="nonzero"/></clipPath><clipPath id="b83e2c8561"><path d="M 437 229 L 587 229 L 587 378 L 437 378 Z M 437 229 " clip-rule="nonzero"/></clipPath><clipPath id="af779a3bca"><path d="M 437.964844 351.171875 L 559.933594 229.207031 L 586.613281 255.886719 L 464.644531 377.855469 Z M 437.964844 351.171875 " clip-rule="nonzero"/></clipPath><clipPath id="5295f22adc"><path d="M 308.667969 455.445312 L 888.015625 -123.898438 L 926.128906 -85.785156 L 346.785156 493.5625 Z M 308.667969 455.445312 " clip-rule="nonzero"/></clipPath><clipPath id="7a13be670b"><rect x="0" width="810" y="0" height="810"/></clipPath><clipPath id="d13445c2ea"><path d="M 368.355469 341.65625 L 459.855469 341.65625 L 459.855469 375.992188 L 368.355469 375.992188 Z M 368.355469 341.65625 " clip-rule="nonzero"/></clipPath></defs><g transform="matrix(1, 0, 0, 1, 0, 0.000000000000039746)"><g clip-path="url(#7a13be670b)"><g clip-path="url(#c9a64e8f78)"><g clip-path="url(#934f91efa8)"><g transform="matrix(1, 0, 0, 1, 0, 0.000000000000039746)"><g clip-path="url(#152fde3fed)"><g clip-path="url(#135a31cefe)"><g clip-path="url(#6e1eda2f59)"><rect x="-294.84" width="1399.68" fill="#737373" y="-294.839997" height="1399.679988" fill-opacity="1"/></g></g></g></g></g></g><g clip-path="url(#2519b130b5)"><path stroke-linecap="round" transform="matrix(1.111053, 0, 0, 1.111053, 120.341364, 123.731366)" fill="none" stroke-linejoin="round" d="M 24.999551 25.000111 L 24.999551 486.998526 L 487.001481 486.998526 " stroke="#000000" stroke-width="28" stroke-opacity="1" stroke-miterlimit="4"/></g><path stroke-linecap="round" transform="matrix(1.111053, 0, 0, 1.111053, 120.341364, 123.731366)" fill="none" stroke-linejoin="round" d="M 429.2508 82.750792 L 299.999109 211.998967 L 211.998407 211.998967 L 82.750231 355.999478 " stroke="#000000" stroke-width="28" stroke-opacity="1" stroke-miterlimit="4"/><path stroke-linecap="round" transform="matrix(1.111053, 0, 0, 1.111053, 120.341364, 123.731366)" fill="none" stroke-linejoin="round" d="M 429.2508 82.750792 L 429.2508 140.501473 " stroke="#000000" stroke-width="28" stroke-opacity="1" stroke-miterlimit="4"/><path stroke-linecap="round" transform="matrix(1.111053, 0, 0, 1.111053, 120.341364, 123.731366)" fill="none" stroke-linejoin="round" d="M 429.2508 82.750792 L 429.2508 140.501473 " stroke="#000000" stroke-width="28" stroke-opacity="1" stroke-miterlimit="4"/><path stroke-linecap="round" transform="matrix(1.111053, 0, 0, 1.111053, 120.341364, 123.731366)" fill="none" stroke-linejoin="round" d="M 371.500119 82.750792 L 429.2508 82.750792 " stroke="#000000" stroke-width="28" stroke-opacity="1" stroke-miterlimit="4"/><g clip-path="url(#b83e2c8561)"><g clip-path="url(#af779a3bca)"><g clip-path="url(#5295f22adc)"><path fill="#bebada" d="M 864.402344 -100.285156 L 333.296875 430.820312 C 322.820312 441.296875 322.820312 458.28125 333.296875 468.757812 C 343.769531 479.230469 360.757812 479.230469 371.230469 468.757812 L 902.339844 -62.351562 C 912.8125 -72.824219 912.8125 -89.8125 902.339844 -100.285156 C 891.863281 -110.761719 874.878906 -110.761719 864.402344 -100.285156 Z M 864.402344 -100.285156 " fill-opacity="1" fill-rule="nonzero"/></g></g></g></g></g><g clip-path="url(#d13445c2ea)"><path fill="#bebada" d="M 980.507812 315.242188 L 128.203125 315.242188 C 111.394531 315.242188 97.765625 328.871094 97.765625 345.683594 C 97.765625 362.492188 111.394531 376.121094 128.203125 376.121094 L 980.507812 376.121094 C 997.320312 376.121094 1010.949219 362.492188 1010.949219 345.683594 C 1010.949219 328.871094 997.320312 315.242188 980.507812 315.242188 Z M 980.507812 315.242188 " fill-opacity="1" fill-rule="nonzero"/></g></g>
<circle cx="92" cy="72" r="16" fill="none" stroke="#000" stroke-width="2" stroke-dasharray="1 4"/>
<g transform="translate(116,58) scale(0.0345679012345679)" style="color:#bebada"><defs><clipPath id="c7184a8b77"><path d="M 101.25 0 L 810 0 L 810 810 L 101.25 810 Z M 101.25 0 " clip-rule="nonzero"/></clipPath><clipPath id="81394f8a86"><path d="M 101.25 405 L 810 0 L 810 810 Z M 101.25 405 " clip-rule="nonzero"/></clipPath><clipPath id="69e80c77fc"><path d="M 0.25 0 L 709 0 L 709 810 L 0.25 810 Z M 0.25 0 " clip-rule="nonzero"/></clipPath><clipPath id="ad31ab6673"><path d="M 0.25 405 L 709 0 L 709 810 Z M 0.25 405 " clip-rule="nonzero"/></clipPath><clipPath id="2e37e88b82"><rect x="0" width="709" y="0" height="810"/></clipPath></defs><g clip-path="url(#c7184a8b77)"><g clip-path="url(#81394f8a86)"><g transform="matrix(1, 0, 0, 1, 101, 0.000000000000039746)"><g clip-path="url(#2e37e88b82)"><g clip-path="url(#69e80c77fc)"><g clip-path="url(#ad31ab6673)"><path fill="#bebada" d="M 0.25 810 L 0.25 -1.1875 L 709 -1.1875 L 709 810 Z M 0.25 810 " fill-opacity="1" fill-rule="nonzero"/></g></g></g></g><path fill="#000000" d="M 356.605469 206.390625 L 594.9375 70.199219 L 640.335938 149.644531 L 402.003906 285.832031 Z M 634.660156 47.5 L 855.75 -78.835938 L 855.75 98.695312 L 764.25 98.695312 L 764.25 0 L 810 0 L 832.699219 39.722656 L 680.058594 126.945312 Z M 855.75 144.445312 L 855.75 418.945312 L 764.25 418.945312 L 764.25 144.445312 Z M 855.75 464.695312 L 855.75 739.195312 L 764.25 739.195312 L 764.25 464.695312 Z M 855.75 784.945312 L 855.75 888.835938 L 570.722656 725.960938 L 616.117188 646.519531 L 832.699219 770.277344 L 810 810 L 764.25 810 L 764.25 784.945312 Z M 531 703.265625 L 292.667969 567.074219 L 338.0625 487.628906 L 576.394531 623.820312 Z M 252.945312 544.375 L 9.039062 405 L 316.882812 229.085938 L 362.28125 308.53125 L 123.949219 444.722656 L 101.25 405 L 123.949219 365.277344 L 298.339844 464.929688 Z M 252.945312 544.375 " fill-opacity="1" fill-rule="nonzero"/></g></g></g>
<g transform="translate(78,98) scale(0.0345679012345679)" style="color:#111"><defs><clipPath id="ef8b6e6477"><path d="M 0 0 L 810 0 L 810 810 L 0 810 Z M 0 0 " clip-rule="nonzero"/></clipPath><clipPath id="8f38f95bf3"><rect x="0" width="810" y="0" height="810"/></clipPath></defs><g transform="matrix(1, 0, 0, 1, 0, 0.000000000000039746)"><g clip-path="url(#8f38f95bf3)"><g clip-path="url(#ef8b6e6477)"><rect x="-178.2" width="1166.4" fill="#737373" height="1166.39999" y="-178.199998" fill-opacity="1"/></g></g></g></g>
</svg>