<svg xmlns="http://www.w3.org/2000/svg" xmlns:xlink="http://www.w3.org/1999/xlink" width="1080" zoomAndPan="magnify" viewBox="0 0 810 809.999993" height="1080" preserveAspectRatio="xMidYMid meet" version="1.0"><defs><clipPath id="27b780c3e7"><path d="M 253.125 0 L 556.875 0 L 556.875 253.125 L 253.125 253.125 Z M 0 253.125 L 810 253.125 L 810 556.875 L 0 556.875 Z M 253.125 556.875 L 556.875 556.875 L 556.875 810 L 253.125 810 Z M 253.125 556.875 " clip-rule="nonzero"/></clipPath><clipPath id="5a2f55470b"><path d="M 253.125 0 L 556.875 0 L 556.875 253.125 L 253.125 253.125 Z M 0 253.125 L 810 253.125 L 810 556.875 L 0 556.875 Z M 253.125 556.875 L 556.875 556.875 L 556.875 810 L 253.125 810 Z M 253.125 556.875 " clip-rule="nonzero"/></clipPath><clipPath id="149601081a"><rect x="0" width="810" y="0" height="810"/></clipPath></defs><g clip-path="url(#27b780c3e7)"><g transform="matrix(1, 0, 0, 1, 0, 0.000000000000039746)"><g clip-path="url(#149601081a)"><g clip-path="url(#5a2f55470b)"><rect x="-178.2" width="1166.4" fill="#737373" height="1166.39999" y="-178.199998" fill-opacity="1"/></g></g></g></g></svg>